<?xml version="1.0" encoding="utf-8"?>
<!-- Generator: Adobe Illustrator 16.0.0, SVG Export Plug-In . SVG Version: 6.00 Build 0)  -->
<!DOCTYPE svg PUBLIC "-//W3C//DTD SVG 1.1//EN" "http://www.w3.org/Graphics/SVG/1.1/DTD/svg11.dtd">
<svg version="1.1" id="Calque_1" xmlns="http://www.w3.org/2000/svg" xmlns:xlink="http://www.w3.org/1999/xlink" x="0px" y="0px"
	 width="512px" height="512px" viewBox="0 0 512 512" enable-background="new 0 0 512 512" xml:space="preserve">
<path fill-rule="evenodd" clip-rule="evenodd" fill="#FFFFFF" d="M261.72,96.728c40.656-0.008,81.32-0.042,121.978,0.008
	c26.019,0.031,39.141,11.144,44.319,36.739c0.478,2.386,3.147,5.191,5.495,6.203c23.502,10.166,34.669,28.208,34.615,53.431
	c-0.062,26.135-0.616,52.27-0.608,78.397c0.016,28.02-0.246,56.063,0.831,84.053c1.509,39.109-27.119,62.104-60.058,60.604
	c-34.6-1.577-69.331-0.546-103.992-0.169c-7.118,0.076-10.651-2.094-13.129-8.812c-6.703-18.14-6.995-18.023-26.227-18.009
	c-10.405,0.016-20.813,0.254-31.203-0.123c-5.483-0.2-8.412,1.463-10.555,6.818c-8.027,20.04-8.238,19.947-29.64,19.955
	c-31.518,0.008-63.036,0.054-94.558,0.047c-34.404-0.016-56.764-22.218-56.825-56.695c-0.1-54.709-0.054-109.425-0.035-164.134
	c0.015-32.98,15.926-51.938,48.433-58.411c2.12-0.419,4.806-3.552,5.279-5.826c4.502-21.687,18.812-33.95,41.068-34.027
	C178.513,96.627,220.116,96.735,261.72,96.728z M255.193,150.244c-51.661,0-103.327-0.023-154.988,0.008
	c-28.947,0.015-44.154,15.222-44.185,44.293c-0.058,52.527-0.031,105.05-0.007,157.582c0,5.033-0.085,10.097,0.354,15.106
	c1.64,18.771,17.396,34.423,36.174,34.67c35.905,0.461,71.824,0.3,107.729-0.047c2.736-0.022,6.768-2.924,7.93-5.51
	c5.533-12.313,10.324-24.973,15.307-37.532c5.671-14.299,16.019-22.402,31.472-22.926c14.076-0.477,25.626,7.988,31.661,22.618
	c4.917,11.905,9.842,23.826,14.152,35.962c2.139,6.025,5.341,7.903,11.729,7.834c32.444-0.354,64.897-0.177,97.343-0.161
	c29.028,0.016,44.389-15.106,44.42-44.043c0.062-54.801,0.062-109.595-0.008-164.392c-0.03-27.786-15.53-43.4-43.143-43.439
	C359.155,150.19,307.17,150.244,255.193,150.244z M413.325,136.23c0.9-15.765-9.997-25.8-27.89-25.812
	c-82.498-0.046-165.004-0.023-247.51-0.016c-2.201,0-4.425-0.042-6.603,0.219c-12.671,1.524-22.11,12.964-20.852,25.608
	C211.409,136.23,312.381,136.23,413.325,136.23z M277.634,375.167c-4.833-18.347-11.866-26.097-22.787-25.796
	c-11.436,0.308-18.443,8.45-21.891,25.796C247.694,375.167,262.343,375.167,277.634,375.167z"/>
<path fill-rule="evenodd" clip-rule="evenodd" fill="#FFFFFF" d="M155.418,336.019c-28.732,0.801-60.134-21.633-59.957-59.888
	c0.165-35.886,28.024-59.819,60.138-59.812c33.784,0.008,59.646,27.266,60.126,59.919
	C216.207,308.906,188.41,336.019,155.418,336.019z M109.583,276.523c-0.196,25.357,19.755,45.697,45.055,45.928
	c25.527,0.23,46.101-19.624,47.032-44.228c1.201-31.652-24.907-47.937-45.778-48.375
	C134.363,229.402,108.905,246.402,109.583,276.523z"/>
<path fill-rule="evenodd" clip-rule="evenodd" fill="#FFFFFF" d="M414.133,276.823c-0.199,33.977-25.818,59.28-59.918,59.173
	c-32.584-0.101-60.119-26.92-59.25-59.35c0.993-37.355,28.49-60.466,60.427-60.312C388.707,216.504,414.334,242.823,414.133,276.823
	z M354.992,322.467c25.08,0,46.481-20.84,46.412-45.174c-0.076-26.266-20.917-48.06-46.259-47.298
	c-27.696,0.831-45.158,19.139-46.744,43.82C306.662,300.842,328.434,322.467,354.992,322.467z"/>
</svg>
