<?xml version="1.0" encoding="utf-8"?>
<!-- Generator: Adobe Illustrator 16.0.0, SVG Export Plug-In . SVG Version: 6.00 Build 0)  -->
<!DOCTYPE svg PUBLIC "-//W3C//DTD SVG 1.1//EN" "http://www.w3.org/Graphics/SVG/1.1/DTD/svg11.dtd">
<svg version="1.1" id="Calque_1" xmlns="http://www.w3.org/2000/svg" xmlns:xlink="http://www.w3.org/1999/xlink" x="0px" y="0px"
	 width="512px" height="512px" viewBox="0 0 512 512" enable-background="new 0 0 512 512" xml:space="preserve">
<g>
	<path fill="#FFFFFF" d="M213.504,264.877c0-3.613,0-5.836,0-8.061c0-29.421-0.023-58.842,0.009-88.263
		c0.022-18.208,11.643-30.798,28.227-30.69c16.254,0.106,27.767,12.635,27.831,30.426c0.063,17.269,0.014,34.534,0.014,52.575
		c18.255-8.534,32.775-5.084,43.268,12.86c9.229-5.795,19.009-8.506,29.619-3.769c10.643,4.75,15.621,13.488,16.863,22.677
		c8.242-0.497,16.314-2.323,23.908-1.131c11.47,1.8,20.448,11.969,20.555,23.545c0.264,28.452,1.592,57.142-1.39,85.322
		c-5.263,49.746-55.509,86.316-105.271,79.783c-33.777-4.437-59.397-21.526-77.645-49.486
		c-21.667-33.197-42.522-66.934-63.287-100.71c-4.458-7.249-8.002-15.396-10.251-23.599c-4.693-17.111,9.088-30.669,26.497-26.796
		c13.194,2.935,23.564,10.901,33.706,19.228C208.239,260.5,210.31,262.229,213.504,264.877z M224.721,291.546
		c-10.872-9.879-20.271-19.374-30.701-27.558c-6.844-5.369-14.787-9.914-22.945-12.894c-10.236-3.743-17.632,3.833-13.916,14.075
		c3.23,8.898,7.687,17.506,12.68,25.577c17.673,28.571,35.667,56.95,53.859,85.197c5.412,8.407,11.207,16.753,17.969,24.075
		c23.31,25.241,52.414,34.827,85.723,26.834c33.502-8.037,56.972-29.94,62.46-63.664c4.707-28.918,2.528-59.029,2.456-88.608
		c-0.019-8.112-8.946-13.76-17.115-13.317s-14.9,6.849-15.792,15.132c-0.243,2.24-0.228,4.51-0.329,6.769c-3.907,0-7.247,0-10.997,0
		c0-9.324,0.159-18.174-0.042-27.014c-0.235-10.251-7.648-17.564-17.194-17.335c-9.264,0.223-16.126,7.473-16.365,17.448
		c-0.125,5.278-0.021,10.562-0.021,15.862c-4.142,0-7.326,0-11.243,0c0-9.337,0.182-18.387-0.048-27.425
		c-0.246-9.896-7.448-17.069-16.72-17.1c-9.287-0.032-16.476,7.167-16.824,16.983c-0.142,3.966-0.03,7.94-0.03,11.91
		c-0.001,8.989-0.001,17.977-0.001,26.765c-4.309,0-7.486,0-11.218,0c0-2.907,0-5.429,0-7.952c0-34.327,0-68.656,0-102.986
		c0-1.868,0.041-3.736-0.017-5.603c-0.336-10.356-7.395-17.69-16.941-17.625c-9.559,0.067-16.626,7.426-16.651,17.842
		c-0.084,38.768-0.035,77.533-0.036,116.298C224.721,285.717,224.721,288.202,224.721,291.546z"/>
</g>
<g>
	<path fill="#FFFFFF" d="M191.273,129.808H72.733c-3.29,0-5.956-2.666-5.956-5.955c0-3.29,2.666-5.956,5.956-5.956h118.54
		c3.289,0,5.956,2.666,5.956,5.956C197.229,127.142,194.562,129.808,191.273,129.808z"/>
	<g>
		<polygon fill="#FFFFFF" points="112.199,172.566 120.324,163.842 77.304,123.865 120.324,83.875 112.199,75.152 59.816,123.865 		
			"/>
	</g>
</g>
<g>
	<path fill="#FFFFFF" d="M405.934,129.844h-118.54c-3.289,0-5.955-2.666-5.955-5.956c0-3.289,2.666-5.955,5.955-5.955h118.54
		c3.289,0,5.955,2.666,5.955,5.955C411.889,127.178,409.223,129.844,405.934,129.844z"/>
	<g>
		<polygon fill="#FFFFFF" points="366.468,172.601 358.344,163.877 401.362,123.9 358.344,83.911 366.468,75.187 418.851,123.9 		
			"/>
	</g>
</g>
</svg>
