<?xml version="1.0" encoding="utf-8"?>
<!-- Generator: Adobe Illustrator 16.0.0, SVG Export Plug-In . SVG Version: 6.00 Build 0)  -->
<!DOCTYPE svg PUBLIC "-//W3C//DTD SVG 1.1//EN" "http://www.w3.org/Graphics/SVG/1.1/DTD/svg11.dtd">
<svg version="1.1" id="Calque_1" xmlns="http://www.w3.org/2000/svg" xmlns:xlink="http://www.w3.org/1999/xlink" x="0px" y="0px"
	 width="512px" height="512px" viewBox="0 0 512 512" enable-background="new 0 0 512 512" xml:space="preserve">
<g>
	<path fill="#FFFFFF" d="M206.71,268.728c0-4.247,0-6.86,0-9.475c0-34.582-0.027-69.164,0.01-103.746
		c0.026-21.403,13.686-36.201,33.178-36.074c19.105,0.125,32.639,14.851,32.713,35.763c0.074,20.297,0.016,40.592,0.016,61.797
		c21.457-10.031,38.525-5.976,50.857,15.116c10.848-6.812,22.344-9.998,34.814-4.429c12.51,5.583,18.361,15.854,19.822,26.655
		c9.688-0.584,19.176-2.73,28.102-1.329c13.482,2.115,24.035,14.068,24.16,27.675c0.311,33.443,1.871,67.165-1.633,100.29
		c-6.186,58.472-65.246,101.457-123.736,93.778c-39.703-5.216-69.817-25.303-91.265-58.167
		c-25.468-39.021-49.981-78.676-74.389-118.377c-5.239-8.521-9.406-18.096-12.049-27.738c-5.516-20.112,10.683-36.049,31.145-31.496
		c15.508,3.45,27.698,12.813,39.618,22.601C200.521,263.582,202.956,265.615,206.71,268.728z M219.894,300.074
		c-12.779-11.612-23.827-22.772-36.086-32.392c-8.045-6.311-17.381-11.653-26.97-15.155c-12.032-4.399-20.725,4.506-16.356,16.544
		c3.797,10.459,9.036,20.577,14.904,30.063c20.773,33.584,41.923,66.94,63.307,100.143c6.362,9.882,13.172,19.691,21.121,28.299
		c27.399,29.668,61.608,40.936,100.76,31.541c39.379-9.447,66.965-35.192,73.416-74.832c5.533-33.99,2.973-69.384,2.887-104.151
		c-0.021-9.535-10.516-16.174-20.117-15.654c-9.602,0.521-17.514,8.051-18.562,17.787c-0.285,2.633-0.268,5.301-0.387,7.956
		c-4.592,0-8.518,0-12.926,0c0-10.96,0.188-21.362-0.049-31.753c-0.277-12.049-8.99-20.646-20.211-20.375
		c-10.889,0.261-18.955,8.784-19.236,20.508c-0.146,6.204-0.025,12.414-0.025,18.646c-4.867,0-8.611,0-13.215,0
		c0-10.975,0.213-21.612-0.057-32.236c-0.289-11.633-8.754-20.063-19.652-20.1c-10.916-0.038-19.365,8.423-19.775,19.962
		c-0.166,4.662-0.035,9.332-0.035,13.999c-0.002,10.565-0.002,21.13-0.002,31.459c-5.064,0-8.799,0-13.186,0
		c0-3.417,0-6.381,0-9.347c0-40.349,0-80.7,0-121.052c0-2.195,0.049-4.392-0.02-6.585c-0.395-12.173-8.691-20.793-19.912-20.717
		c-11.235,0.079-19.543,8.729-19.572,20.972c-0.099,45.568-0.041,91.134-0.042,136.699
		C219.894,293.223,219.894,296.144,219.894,300.074z"/>
</g>
<g>
	<path fill="#FFFFFF" d="M192.333,114.667H53c-3.866,0-7-3.134-7-7s3.134-7,7-7h139.333c3.866,0,7,3.134,7,7
		S196.2,114.667,192.333,114.667z"/>
	<g>
		<polygon fill="#FFFFFF" points="99.389,164.925 108.938,154.671 58.373,107.681 108.938,60.677 99.389,50.423 37.817,107.681 		
			"/>
	</g>
</g>
<g>
	<path fill="#FFFFFF" d="M424.667,114.708H285.333c-3.866,0-7-3.134-7-7s3.134-7,7-7h139.334c3.866,0,7,3.134,7,7
		S428.533,114.708,424.667,114.708z"/>
	<g>
		<polygon fill="#FFFFFF" points="378.278,164.966 368.729,154.712 419.294,107.722 368.729,60.718 378.278,50.464 439.85,107.722 
					"/>
	</g>
</g>
</svg>
