<?xml version="1.0" encoding="utf-8"?>
<!-- Generator: Adobe Illustrator 16.0.0, SVG Export Plug-In . SVG Version: 6.00 Build 0)  -->
<!DOCTYPE svg PUBLIC "-//W3C//DTD SVG 1.1//EN" "http://www.w3.org/Graphics/SVG/1.1/DTD/svg11.dtd">
<svg version="1.1" id="Calque_1" xmlns="http://www.w3.org/2000/svg" xmlns:xlink="http://www.w3.org/1999/xlink" x="0px" y="0px"
	 width="512px" height="512px" viewBox="0 0 512 512" enable-background="new 0 0 512 512" xml:space="preserve">
<path fill="#FFFFFF" d="M215.662,348.896H46.922c-9.651,0-17.502-7.852-17.502-17.502V45.974c0-9.651,7.852-17.502,17.502-17.502
	h168.739c9.651,0,17.502,7.851,17.502,17.502v285.421C233.164,341.045,225.312,348.896,215.662,348.896z M46.922,41.935
	c-2.228,0-4.039,1.812-4.039,4.039v285.421c0,2.227,1.812,4.039,4.039,4.039h168.739c2.227,0,4.039-1.812,4.039-4.039V45.974
	c0-2.228-1.812-4.039-4.039-4.039H46.922z"/>
<path fill="#FFFFFF" d="M466.078,483.529H180.657c-9.651,0-17.502-7.853-17.502-17.503V297.287c0-9.65,7.852-17.502,17.502-17.502
	h285.421c9.65,0,17.502,7.852,17.502,17.502v168.739C483.58,475.677,475.729,483.529,466.078,483.529z M180.657,293.248
	c-2.228,0-4.039,1.812-4.039,4.039v168.739c0,2.228,1.812,4.039,4.039,4.039h285.421c2.227,0,4.039-1.812,4.039-4.039V297.287
	c0-2.227-1.812-4.039-4.039-4.039H180.657z"/>
<g>
	<path fill="#FFFFFF" d="M396.495,229.299l-9.847-0.713c2.581-35.695-5.564-62.864-24.211-80.753
		c-30.749-29.498-80.49-24.2-80.989-24.142l-1.134-9.808c2.222-0.258,54.751-5.932,88.905,26.774
		C390.124,160.677,399.302,190.501,396.495,229.299z"/>
	<g>
		<polygon fill="#FFFFFF" points="351.367,195.07 358.784,188.539 390.916,225.108 425.044,190.386 432.085,197.319 
			390.512,239.598 		"/>
	</g>
</g>
</svg>
