<?xml version="1.0" encoding="utf-8"?>
<!-- Generator: Adobe Illustrator 16.0.0, SVG Export Plug-In . SVG Version: 6.00 Build 0)  -->
<!DOCTYPE svg PUBLIC "-//W3C//DTD SVG 1.1//EN" "http://www.w3.org/Graphics/SVG/1.1/DTD/svg11.dtd">
<svg version="1.1" id="Calque_1" xmlns="http://www.w3.org/2000/svg" xmlns:xlink="http://www.w3.org/1999/xlink" x="0px" y="0px"
	 width="512px" height="512px" viewBox="0 0 512 512" enable-background="new 0 0 512 512" xml:space="preserve">
<path fill-rule="evenodd" clip-rule="evenodd" fill="#FFFFFF" d="M267.382,323.14c0-11.568,0-23.14,0-35.1c2.928,0,5.563,0,8.873,0
	c0,11.675,0,23.388,0,35.1C273.298,323.14,270.339,323.14,267.382,323.14z"/>
<path fill-rule="evenodd" clip-rule="evenodd" fill="#FFFFFF" d="M294.005,178.273c0,2.859,0,4.618,0,6.377
	c0,23.278,0.019,46.555-0.007,69.833c-0.017,14.405-9.212,24.366-22.332,24.28c-12.859-0.083-21.969-9.996-22.019-24.071
	c-0.049-13.662-0.011-27.323-0.011-41.596c-14.443,6.751-25.932,4.022-34.232-10.175c-7.301,4.585-15.04,6.73-23.434,2.982
	c-8.42-3.759-12.358-10.672-13.342-17.942c-6.521,0.393-12.907,1.838-18.916,0.895c-9.074-1.424-16.178-9.47-16.263-18.629
	c-0.209-22.51-1.258-45.209,1.1-67.506c4.163-39.357,43.917-68.291,83.287-63.122c26.724,3.511,46.995,17.032,61.431,39.153
	c17.143,26.265,33.643,52.957,50.072,79.679c3.526,5.736,6.331,12.181,8.11,18.671c3.713,13.539-7.19,24.265-20.964,21.201
	c-10.438-2.323-18.643-8.625-26.667-15.213C298.171,181.736,296.532,180.368,294.005,178.273z M285.131,157.174
	c8.602,7.816,16.038,15.328,24.29,21.802c5.415,4.248,11.699,7.844,18.153,10.202c8.099,2.961,13.95-3.033,11.01-11.136
	c-2.556-7.04-6.082-13.851-10.032-20.237c-13.983-22.605-28.219-45.057-42.612-67.406c-4.283-6.651-8.867-13.254-14.217-19.048
	c-18.442-19.969-41.469-27.553-67.822-21.23c-26.506,6.359-45.075,23.688-49.417,50.37c-3.725,22.879-2,46.702-1.944,70.104
	c0.016,6.418,7.078,10.888,13.542,10.538c6.463-0.351,11.788-5.419,12.494-11.973c0.192-1.773,0.18-3.568,0.261-5.356
	c3.091,0,5.733,0,8.699,0c0,7.377-0.125,14.379,0.034,21.374c0.186,8.11,6.051,13.896,13.604,13.715
	c7.329-0.176,12.759-5.912,12.947-13.805c0.1-4.176,0.018-8.356,0.018-12.55c3.276,0,5.797,0,8.894,0
	c0,7.387-0.142,14.547,0.038,21.699c0.196,7.829,5.893,13.504,13.229,13.529c7.348,0.025,13.036-5.671,13.312-13.437
	c0.111-3.137,0.023-6.281,0.023-9.423c0.001-7.111,0.001-14.223,0.001-21.175c3.41,0,5.923,0,8.875,0c0,2.3,0,4.295,0,6.291
	c0,27.16,0,54.32,0.001,81.481c0,1.478-0.034,2.956,0.014,4.433c0.264,8.193,5.849,13.995,13.402,13.944
	c7.562-0.053,13.154-5.875,13.173-14.117c0.067-30.671,0.028-61.342,0.029-92.012C285.131,161.785,285.131,159.819,285.131,157.174z
	"/>
<path fill-rule="evenodd" clip-rule="evenodd" fill="#FFFFFF" d="M339.968,231.882c0.733,3.278,1.284,5.735,1.931,8.625
	c-11.448,2.653-22.515,5.216-34.236,7.932c-0.71-2.744-1.371-5.292-2.208-8.529C316.995,237.226,328.183,234.624,339.968,231.882z"
	/>
<path fill-rule="evenodd" clip-rule="evenodd" fill="#FFFFFF" d="M238.107,239.85c-0.656,2.993-1.193,5.444-1.879,8.571
	c-11.5-2.627-22.695-5.183-34.466-7.872c0.646-2.935,1.213-5.521,1.9-8.646C215.301,234.589,226.505,237.173,238.107,239.85z"/>
<path fill-rule="evenodd" clip-rule="evenodd" fill="#FFFFFF" d="M329.75,293.366c-1.983,2.468-3.587,4.462-5.54,6.892
	c-9.166-7.416-18.128-14.666-27.528-22.271c1.88-2.354,3.562-4.46,5.522-6.917C311.381,278.497,320.335,285.745,329.75,293.366z"/>
<path fill-rule="evenodd" clip-rule="evenodd" fill="#FFFFFF" d="M247.029,277.939c-9.389,7.603-18.226,14.758-27.503,22.27
	c-1.882-2.272-3.588-4.331-5.636-6.803c9.146-7.419,18.113-14.691,27.463-22.276C243.178,273.319,244.875,275.354,247.029,277.939z"
	/>
<path fill="#FFFFFF" d="M460,447.5H63c-9.649,0-17.5-7.851-17.5-17.5v-72c0-9.649,7.851-17.5,17.5-17.5h397
	c9.649,0,17.5,7.851,17.5,17.5v72C477.5,439.649,469.649,447.5,460,447.5z M63,351.5c-3.584,0-6.5,2.916-6.5,6.5v72
	c0,3.584,2.916,6.5,6.5,6.5h397c3.584,0,6.5-2.916,6.5-6.5v-72c0-3.584-2.916-6.5-6.5-6.5H63z"/>
</svg>
