<?xml version="1.0" encoding="utf-8"?>
<!-- Generator: Adobe Illustrator 16.0.0, SVG Export Plug-In . SVG Version: 6.00 Build 0)  -->
<!DOCTYPE svg PUBLIC "-//W3C//DTD SVG 1.1//EN" "http://www.w3.org/Graphics/SVG/1.1/DTD/svg11.dtd">
<svg version="1.1" id="Calque_1" xmlns="http://www.w3.org/2000/svg" xmlns:xlink="http://www.w3.org/1999/xlink" x="0px" y="0px"
	 width="512px" height="512px" viewBox="0 0 512 512" enable-background="new 0 0 512 512" xml:space="preserve">
<path fill="#FFFFFF" d="M221.264,46.003c0,17.187,0,34.379,0,52.147c-4.351,0-8.266,0-13.182,0c0-17.345,0-34.746,0-52.147
	C212.475,46.003,216.871,46.003,221.264,46.003z"/>
<path fill="#FFFFFF" d="M181.711,261.227c0-4.247,0-6.86,0-9.474c0-34.583-0.027-69.165,0.01-103.747
	c0.026-21.403,13.686-36.201,33.178-36.074c19.104,0.125,32.638,14.851,32.713,35.763c0.073,20.297,0.015,40.592,0.015,61.797
	c21.458-10.031,38.526-5.976,50.858,15.116c10.847-6.812,22.343-9.998,34.814-4.429c12.509,5.583,18.36,15.854,19.821,26.655
	c9.688-0.583,19.176-2.73,28.103-1.329c13.481,2.115,24.034,14.068,24.16,27.675c0.311,33.443,1.87,67.165-1.633,100.29
	c-6.186,58.472-65.246,101.457-123.736,93.778c-39.703-5.216-69.818-25.303-91.266-58.167
	c-25.468-39.021-49.981-78.676-74.389-118.377c-5.239-8.521-9.406-18.096-12.049-27.738c-5.516-20.113,10.683-36.049,31.145-31.496
	c15.508,3.45,27.698,12.813,39.618,22.601C175.521,256.081,177.956,258.114,181.711,261.227z M194.895,292.573
	c-12.779-11.612-23.827-22.772-36.086-32.392c-8.045-6.311-17.381-11.653-26.97-15.155c-12.032-4.399-20.725,4.506-16.356,16.544
	c3.797,10.459,9.036,20.577,14.904,30.063c20.773,33.584,41.923,66.94,63.307,100.143c6.362,9.882,13.172,19.691,21.121,28.299
	c27.398,29.668,61.607,40.936,100.76,31.541c39.379-9.447,66.965-35.192,73.417-74.832c5.533-33.99,2.972-69.384,2.887-104.151
	c-0.022-9.535-10.516-16.174-20.118-15.654c-9.602,0.521-17.514,8.051-18.562,17.787c-0.284,2.633-0.267,5.301-0.387,7.956
	c-4.592,0-8.517,0-12.925,0c0-10.96,0.187-21.362-0.049-31.753c-0.277-12.049-8.991-20.646-20.212-20.375
	c-10.889,0.261-18.955,8.783-19.235,20.509c-0.147,6.204-0.025,12.414-0.025,18.645c-4.868,0-8.612,0-13.215,0
	c0-10.975,0.212-21.612-0.057-32.236c-0.29-11.633-8.754-20.063-19.652-20.1c-10.916-0.038-19.367,8.423-19.776,19.962
	c-0.166,4.662-0.035,9.332-0.035,13.999c-0.003,10.565-0.003,21.13-0.003,31.459c-5.065,0-8.798,0-13.186,0c0-3.417,0-6.381,0-9.347
	c0-40.349,0-80.7,0-121.052c0-2.195,0.049-4.392-0.02-6.585c-0.393-12.173-8.69-20.793-19.911-20.717
	c-11.235,0.079-19.543,8.729-19.572,20.972c-0.099,45.568-0.041,91.134-0.042,136.699
	C194.895,285.722,194.895,288.643,194.895,292.573z"/>
<path fill="#FFFFFF" d="M113.426,181.583c-1.089-4.871-1.908-8.521-2.87-12.814c17.008-3.942,33.451-7.749,50.863-11.785
	c1.055,4.077,2.037,7.864,3.28,12.672C147.555,173.642,130.935,177.509,113.426,181.583z"/>
<path fill="#FFFFFF" d="M264.756,169.745c0.974-4.447,1.771-8.088,2.792-12.734c17.085,3.903,33.716,7.7,51.204,11.695
	c-0.961,4.36-1.802,8.203-2.823,12.846C298.638,177.561,281.992,173.722,264.756,169.745z"/>
<path fill="#FFFFFF" d="M128.606,90.238c2.947-3.666,5.329-6.629,8.23-10.238c13.618,11.018,26.932,21.789,40.898,33.087
	c-2.794,3.497-5.293,6.625-8.205,10.275C155.896,112.328,142.594,101.56,128.606,90.238z"/>
<path fill="#FFFFFF" d="M251.501,113.157c13.948-11.295,27.077-21.925,40.86-33.085c2.796,3.375,5.33,6.435,8.373,10.106
	c-13.589,11.023-26.91,21.827-40.801,33.095C257.222,120.022,254.701,116.999,251.501,113.157z"/>
</svg>
