<?xml version="1.0" encoding="utf-8"?>
<!-- Generator: Adobe Illustrator 16.0.0, SVG Export Plug-In . SVG Version: 6.00 Build 0)  -->
<!DOCTYPE svg PUBLIC "-//W3C//DTD SVG 1.1//EN" "http://www.w3.org/Graphics/SVG/1.1/DTD/svg11.dtd">
<svg version="1.1" id="Calque_1" xmlns="http://www.w3.org/2000/svg" xmlns:xlink="http://www.w3.org/1999/xlink" x="0px" y="0px"
	 width="100px" height="100px" viewBox="0 0 100 100" enable-background="new 0 0 100 100" xml:space="preserve">
<path d="M56.417,33.119c-0.194,0.572-0.536,0.992-1.006,1.318c0.456-0.04,0.884-0.17,1.302-0.344
	c0.01,0.009,0.018,0.019,0.025,0.029c-0.197,0.229-0.385,0.467-0.594,0.685c-0.164,0.168-0.354,0.313-0.533,0.464
	c-0.055,0.046-0.08,0.089-0.08,0.165c0.01,2.376-0.897,4.324-2.762,5.802c-0.931,0.736-2.011,1.139-3.188,1.29
	c-1.148,0.148-2.269,0.04-3.358-0.356c-0.462-0.167-0.901-0.382-1.347-0.669c1.334,0.116,2.515-0.203,3.577-1.006
	c-1.113-0.095-1.859-0.653-2.272-1.7c0.375,0.058,0.719,0.055,1.069-0.038c-1.198-0.36-1.84-1.151-1.926-2.428
	c0.354,0.175,0.695,0.289,1.076,0.299c-1.074-0.897-1.313-1.971-0.728-3.255c1.334,1.566,2.998,2.418,5.03,2.558
	c-0.016-0.149-0.035-0.286-0.042-0.423c-0.062-1.212,0.733-2.271,1.925-2.517c0.823-0.17,1.559,0.04,2.178,0.616
	c0.082,0.078,0.149,0.091,0.254,0.066c0.444-0.108,0.873-0.266,1.271-0.489C56.324,33.166,56.359,33.149,56.417,33.119z"/>
<rect x="1.668" y="70.143" fill="none" width="97.332" height="31.857"/>
<g enable-background="new    ">
	<path fill="#010202" d="M7.106,72.984H5.188v-1.029h5.087v1.029H8.335v5.707H7.106V72.984z"/>
	<path fill="#010202" d="M16.026,78.691l-1.649-6.736h1.309l0.64,3.059c0.17,0.819,0.33,1.679,0.44,2.349h0.02
		c0.11-0.71,0.3-1.51,0.49-2.358l0.729-3.049h1.29l0.669,3.099c0.17,0.799,0.31,1.549,0.41,2.278h0.02
		c0.12-0.739,0.28-1.509,0.46-2.328l0.7-3.049h1.249l-1.809,6.736h-1.319l-0.699-3.168c-0.17-0.77-0.29-1.409-0.37-2.139h-0.02
		c-0.12,0.719-0.25,1.369-0.45,2.139l-0.779,3.168H16.026z"/>
	<path fill="#010202" d="M30.925,75.703h-2.539v1.979h2.838v1.01h-4.068v-6.736h3.918v1.01h-2.688v1.738h2.539V75.703z"/>
	<path fill="#010202" d="M39.605,75.703h-2.539v1.979h2.838v1.01h-4.068v-6.736h3.918v1.01h-2.688v1.738h2.539V75.703z"/>
	<path fill="#010202" d="M45.906,72.984h-1.919v-1.029h5.087v1.029h-1.939v5.707h-1.229V72.984z"/>
	<path fill="#010202" d="M53.287,77.353c0.399,0.229,0.999,0.43,1.629,0.43c0.789,0,1.229-0.37,1.229-0.92
		c0-0.51-0.34-0.81-1.199-1.119c-1.109-0.4-1.818-0.989-1.818-1.959c0-1.1,0.919-1.939,2.378-1.939c0.73,0,1.27,0.16,1.619,0.34
		l-0.3,0.99c-0.239-0.13-0.709-0.32-1.339-0.32c-0.78,0-1.119,0.42-1.119,0.81c0,0.52,0.39,0.76,1.289,1.109
		c1.169,0.439,1.739,1.029,1.739,1.999c0,1.079-0.819,2.019-2.559,2.019c-0.71,0-1.449-0.199-1.819-0.42L53.287,77.353z"/>
	<path fill="#010202" d="M66.864,78.491c-0.29,0.15-0.93,0.3-1.739,0.3c-2.139,0-3.438-1.339-3.438-3.388
		c0-2.219,1.54-3.559,3.599-3.559c0.81,0,1.389,0.17,1.639,0.3l-0.27,0.979c-0.32-0.14-0.76-0.26-1.319-0.26
		c-1.369,0-2.358,0.86-2.358,2.479c0,1.479,0.869,2.429,2.349,2.429c0.499,0,1.02-0.1,1.339-0.249L66.864,78.491z"/>
	<path fill="#010202" d="M72.865,76.782l-0.579,1.909h-1.27l2.159-6.736h1.568l2.189,6.736h-1.319l-0.61-1.909H72.865z
		 M74.795,75.853l-0.53-1.658c-0.13-0.41-0.24-0.87-0.34-1.26h-0.02c-0.101,0.39-0.2,0.859-0.32,1.26l-0.52,1.658H74.795z"/>
	<path fill="#010202" d="M81.407,72.045c0.439-0.08,1.049-0.14,1.879-0.14c0.899,0,1.559,0.189,1.988,0.55
		c0.4,0.329,0.66,0.859,0.66,1.489c0,0.64-0.2,1.169-0.58,1.529c-0.489,0.489-1.259,0.719-2.129,0.719c-0.229,0-0.439-0.01-0.6-0.04
		v2.539h-1.219V72.045z M82.626,75.184c0.15,0.04,0.35,0.05,0.6,0.05c0.92,0,1.479-0.45,1.479-1.239c0-0.75-0.52-1.149-1.369-1.149
		c-0.34,0-0.58,0.03-0.71,0.06V75.184z"/>
	<path fill="#010202" d="M94.294,75.703h-2.539v1.979h2.839v1.01h-4.067v-6.736h3.918v1.01h-2.689v1.738h2.539V75.703z"/>
</g>
<path d="M26.878,60.104c-12.239,0-22.196-9.957-22.196-22.194c0-12.239,9.957-22.196,22.196-22.196
	c7.378,0,13.709,3.713,19.355,11.351l-2.412,1.783c-5.111-6.914-10.495-10.134-16.943-10.134c-10.584,0-19.196,8.611-19.196,19.196
	s8.611,19.194,19.196,19.194c7.204,0,11.81-4.647,17.529-11.219l2.263,1.97C41.671,53.596,36.005,60.104,26.878,60.104z"/>
<path fill="none" stroke="#000000" stroke-width="9" stroke-miterlimit="10" d="M43.657,45.364"/>
<path fill="none" stroke="#000000" stroke-width="9" stroke-miterlimit="10" d="M45.693,36.402"/>
<path fill="none" stroke="#000000" stroke-width="9" stroke-miterlimit="10" d="M43.146,26.448"/>
<path d="M73.195,60.855c-9.127,0-14.793-6.508-19.791-12.25l2.262-1.97c5.721,6.569,10.325,11.219,17.529,11.219
	c10.584,0,19.195-8.61,19.195-19.194s-8.611-19.196-19.195-19.196c-6.448,0-11.832,3.22-16.943,10.133l-2.412-1.783
	c5.646-7.638,11.979-11.35,19.355-11.35c12.238,0,22.195,9.957,22.195,22.196S85.434,60.855,73.195,60.855z"/>
</svg>
