<?xml version="1.0" encoding="utf-8"?>
<!-- Generator: Adobe Illustrator 16.0.0, SVG Export Plug-In . SVG Version: 6.00 Build 0)  -->
<!DOCTYPE svg PUBLIC "-//W3C//DTD SVG 1.1//EN" "http://www.w3.org/Graphics/SVG/1.1/DTD/svg11.dtd">
<svg version="1.1" id="Calque_1" xmlns="http://www.w3.org/2000/svg" xmlns:xlink="http://www.w3.org/1999/xlink" x="0px" y="0px"
	 width="512px" height="512px" viewBox="0 0 512 512" enable-background="new 0 0 512 512" xml:space="preserve">
<path fill="#FFFFFF" d="M288.881,231.507c-0.97,2.853-2.676,4.949-5.021,6.577c2.276-0.199,4.411-0.848,6.497-1.718
	c0.049,0.046,0.088,0.095,0.127,0.146c-0.985,1.143-1.921,2.33-2.964,3.419c-0.818,0.838-1.765,1.562-2.661,2.315
	c-0.272,0.229-0.399,0.443-0.399,0.824c0.049,11.858-4.479,21.579-13.783,28.958c-4.645,3.665-10.035,5.688-15.908,6.435
	c-5.729,0.74-11.325,0.204-16.759-1.77c-2.305-0.834-4.496-1.907-6.723-3.339c6.658,0.574,12.552-1.014,17.853-5.025
	c-5.556-0.472-9.277-3.261-11.339-8.485c1.872,0.292,3.587,0.273,5.334-0.189c-5.978-1.799-9.182-5.744-9.611-12.117
	c1.767,0.872,3.468,1.442,5.369,1.491c-5.359-4.476-6.553-9.835-3.633-16.244c6.657,7.815,14.962,12.067,25.105,12.767
	c-0.078-0.744-0.176-1.428-0.21-2.113c-0.307-6.048,3.66-11.332,9.606-12.56c4.109-0.848,7.778,0.2,10.869,3.073
	c0.408,0.39,0.745,0.456,1.268,0.329c2.216-0.538,4.356-1.325,6.34-2.439C288.418,231.74,288.594,231.655,288.881,231.507z"/>
<path fill="#FFFFFF" d="M141.457,366.18c-61.082,0-110.775-49.692-110.775-110.767c0-61.083,49.693-110.777,110.775-110.777
	c36.822,0,68.419,18.53,96.597,56.651l-12.038,8.899c-25.507-34.506-52.376-50.578-84.559-50.578
	c-52.823,0-95.802,42.978-95.802,95.805c0,52.828,42.975,95.795,95.802,95.795c35.954,0,58.941-23.194,87.485-55.991l11.292,9.836
	C215.286,333.701,187.008,366.18,141.457,366.18z"/>
<path fill="none" stroke="#010202" stroke-width="9" stroke-miterlimit="10" d="M225.199,292.619"/>
<path fill="none" stroke="#010202" stroke-width="9" stroke-miterlimit="10" d="M235.358,247.89"/>
<path fill="none" stroke="#010202" stroke-width="9" stroke-miterlimit="10" d="M222.647,198.213"/>
<path fill="#FFFFFF" d="M372.618,369.933c-45.551,0-73.829-32.479-98.773-61.127l11.288-9.846c28.551,32.786,51.53,56,87.485,56
	c52.823,0,95.8-42.977,95.8-95.799c0-52.823-42.977-95.805-95.8-95.805c-32.183,0-59.051,16.071-84.562,50.573l-12.038-8.9
	c28.181-38.121,59.782-56.646,96.6-56.646c61.078,0,110.772,49.693,110.772,110.778C483.391,320.24,433.696,369.933,372.618,369.933
	z"/>
</svg>
