<?xml version="1.0" encoding="utf-8"?>
<!-- Generator: Adobe Illustrator 16.0.0, SVG Export Plug-In . SVG Version: 6.00 Build 0)  -->
<!DOCTYPE svg PUBLIC "-//W3C//DTD SVG 1.1//EN" "http://www.w3.org/Graphics/SVG/1.1/DTD/svg11.dtd">
<svg version="1.1" xmlns="http://www.w3.org/2000/svg" xmlns:xlink="http://www.w3.org/1999/xlink" x="0px" y="0px" width="100px"
	 height="100px" viewBox="0 0 100 100" enable-background="new 0 0 100 100" xml:space="preserve">
<g id="Calque_2">
</g>
<g id="Calque_1">
	<path fill="none" stroke="#000000" stroke-width="9" stroke-miterlimit="10" d="M43.657,54.364"/>
	<path fill="none" stroke="#000000" stroke-width="9" stroke-miterlimit="10" d="M45.693,45.402"/>
	<path fill="none" stroke="#000000" stroke-width="9" stroke-miterlimit="10" d="M43.146,35.448"/>
	<g>
		<linearGradient id="SVGID_1_" gradientUnits="userSpaceOnUse" x1="1.2534" y1="46.5122" x2="100.2534" y2="47.0122">
			<stop  offset="0" style="stop-color:#21C2CC"/>
			<stop  offset="1" style="stop-color:#6B4BBA"/>
		</linearGradient>
		<path fill="url(#SVGID_1_)" d="M56.417,42.119c-0.194,0.572-0.536,0.992-1.006,1.318c0.456-0.04,0.884-0.17,1.302-0.344
			c0.01,0.009,0.018,0.019,0.025,0.029c-0.197,0.229-0.385,0.467-0.594,0.685c-0.164,0.168-0.353,0.313-0.533,0.464
			c-0.055,0.046-0.08,0.089-0.08,0.165c0.01,2.376-0.897,4.324-2.762,5.802c-0.93,0.735-2.01,1.14-3.187,1.29
			c-1.148,0.148-2.269,0.041-3.358-0.355c-0.462-0.167-0.901-0.382-1.347-0.669c1.334,0.115,2.515-0.203,3.577-1.007
			c-1.113-0.095-1.859-0.653-2.272-1.7c0.375,0.058,0.719,0.055,1.069-0.038c-1.198-0.36-1.84-1.151-1.926-2.428
			c0.354,0.175,0.695,0.289,1.076,0.299c-1.074-0.897-1.313-1.971-0.728-3.255c1.334,1.566,2.998,2.418,5.03,2.558
			c-0.015-0.149-0.035-0.286-0.042-0.423c-0.062-1.212,0.734-2.271,1.925-2.517c0.823-0.17,1.558,0.04,2.177,0.616
			c0.082,0.078,0.15,0.091,0.254,0.066c0.445-0.108,0.873-0.266,1.271-0.489C56.324,42.166,56.359,42.149,56.417,42.119z"/>
		<linearGradient id="SVGID_2_" gradientUnits="userSpaceOnUse" x1="1.2524" y1="46.7788" x2="100.2524" y2="47.2788">
			<stop  offset="0" style="stop-color:#21C2CC"/>
			<stop  offset="1" style="stop-color:#6B4BBA"/>
		</linearGradient>
		<path fill="url(#SVGID_2_)" d="M26.878,69.104c-12.239,0-22.196-9.957-22.196-22.195c0-12.239,9.957-22.196,22.196-22.196
			c7.378,0,13.709,3.713,19.355,11.351l-2.412,1.783c-5.111-6.914-10.495-10.134-16.943-10.134
			c-10.584,0-19.196,8.611-19.196,19.196s8.611,19.195,19.196,19.195c7.204,0,11.81-4.648,17.529-11.219l2.263,1.971
			C41.671,62.596,36.005,69.104,26.878,69.104z"/>
		<linearGradient id="SVGID_3_" gradientUnits="userSpaceOnUse" x1="1.2495" y1="47.2964" x2="100.2495" y2="47.7964">
			<stop  offset="0" style="stop-color:#21C2CC"/>
			<stop  offset="1" style="stop-color:#6B4BBA"/>
		</linearGradient>
		<path fill="url(#SVGID_3_)" d="M73.195,69.855c-9.127,0-14.793-6.508-19.791-12.248l2.262-1.972
			c5.721,6.569,10.325,11.22,17.529,11.22c10.584,0,19.195-8.611,19.195-19.195s-8.611-19.196-19.195-19.196
			c-6.448,0-11.832,3.22-16.943,10.133l-2.412-1.783c5.646-7.638,11.979-11.35,19.355-11.35c12.238,0,22.195,9.957,22.195,22.196
			C95.391,59.898,85.434,69.855,73.195,69.855z"/>
	</g>
</g>
</svg>
