<?xml version="1.0" encoding="utf-8"?>
<!-- Generator: Adobe Illustrator 16.0.0, SVG Export Plug-In . SVG Version: 6.00 Build 0)  -->
<!DOCTYPE svg PUBLIC "-//W3C//DTD SVG 1.1//EN" "http://www.w3.org/Graphics/SVG/1.1/DTD/svg11.dtd">
<svg version="1.1" xmlns="http://www.w3.org/2000/svg" xmlns:xlink="http://www.w3.org/1999/xlink" x="0px" y="0px" width="100px"
	 height="100px" viewBox="0 0 100 100" enable-background="new 0 0 100 100" xml:space="preserve">
<g id="Calque_1">
</g>
<g id="Calque_2">
	<g>
		<path fill="#FFFFFF" d="M0,0v100h100V0H0z M10.275,72.984h-1.94v5.707H7.106v-5.707H5.188v-1.029h5.087V72.984z M20.994,78.691
			h-1.319l-0.699-3.168c-0.17-0.77-0.29-1.408-0.37-2.139h-0.02c-0.12,0.719-0.25,1.369-0.45,2.139l-0.779,3.168h-1.331
			l-1.649-6.736h1.309l0.64,3.059c0.17,0.819,0.33,1.68,0.44,2.35h0.02c0.11-0.711,0.3-1.51,0.49-2.358l0.729-3.049h1.29
			l0.669,3.099c0.17,0.799,0.31,1.549,0.41,2.278h0.02c0.12-0.739,0.28-1.509,0.46-2.328l0.7-3.049h1.249L20.994,78.691z
			 M31.224,78.691h-4.068v-6.735h3.918v1.01h-2.688v1.738h2.539v0.999h-2.539v1.979h2.838V78.691z M39.904,78.691h-4.068v-6.735
			h3.918v1.01h-2.688v1.738h2.539v0.999h-2.539v1.979h2.838V78.691z M26.878,60.104c-12.239,0-22.196-9.957-22.196-22.193
			c0-12.239,9.957-22.196,22.196-22.196c7.378,0,13.709,3.713,19.355,11.351l-2.412,1.783c-5.111-6.914-10.495-10.134-16.943-10.134
			c-10.584,0-19.196,8.611-19.196,19.196s8.611,19.193,19.196,19.193c7.204,0,11.81-4.646,17.529-11.219l2.263,1.97
			C41.671,53.596,36.005,60.104,26.878,60.104z M49.074,72.984h-1.939v5.707h-1.229v-5.707h-1.919v-1.029h5.087V72.984z
			 M49.581,42.528c-1.148,0.148-2.269,0.04-3.358-0.356c-0.462-0.167-0.901-0.382-1.347-0.669c1.334,0.116,2.515-0.203,3.577-1.006
			c-1.113-0.095-1.859-0.653-2.272-1.7c0.375,0.058,0.719,0.055,1.069-0.038c-1.198-0.36-1.84-1.151-1.926-2.428
			c0.354,0.175,0.695,0.289,1.076,0.299c-1.074-0.897-1.313-1.971-0.728-3.255c1.334,1.566,2.998,2.418,5.03,2.558
			c-0.017-0.149-0.035-0.286-0.042-0.423c-0.062-1.212,0.732-2.271,1.925-2.517c0.823-0.17,1.56,0.04,2.179,0.616
			c0.082,0.078,0.148,0.091,0.254,0.066c0.443-0.108,0.873-0.266,1.271-0.489c0.036-0.02,0.071-0.037,0.129-0.067
			c-0.194,0.572-0.536,0.992-1.006,1.318c0.456-0.04,0.884-0.17,1.302-0.344c0.01,0.009,0.018,0.019,0.025,0.029
			c-0.197,0.229-0.385,0.467-0.594,0.685c-0.164,0.168-0.354,0.313-0.533,0.464c-0.055,0.046-0.08,0.089-0.08,0.165
			c0.01,2.376-0.897,4.324-2.762,5.802C51.838,41.974,50.758,42.377,49.581,42.528z M54.836,78.793c-0.71,0-1.449-0.199-1.818-0.42
			l0.27-1.02c0.398,0.229,0.999,0.43,1.629,0.43c0.789,0,1.229-0.37,1.229-0.92c0-0.51-0.34-0.811-1.199-1.119
			c-1.108-0.4-1.817-0.989-1.817-1.959c0-1.1,0.919-1.939,2.378-1.939c0.73,0,1.27,0.16,1.619,0.34l-0.3,0.99
			c-0.239-0.13-0.709-0.32-1.339-0.32c-0.78,0-1.119,0.42-1.119,0.811c0,0.52,0.39,0.76,1.289,1.109
			c1.169,0.438,1.738,1.029,1.738,1.998C57.395,77.854,56.576,78.793,54.836,78.793z M65.327,77.771c0.499,0,1.021-0.101,1.339-0.25
			l0.197,0.97c-0.289,0.149-0.93,0.3-1.738,0.3c-2.139,0-3.438-1.339-3.438-3.389c0-2.219,1.539-3.559,3.599-3.559
			c0.81,0,1.389,0.17,1.639,0.301l-0.271,0.979c-0.319-0.141-0.76-0.26-1.318-0.26c-1.369,0-2.357,0.859-2.357,2.479
			C62.979,76.82,63.848,77.771,65.327,77.771z M75.613,78.691l-0.61-1.909h-2.138l-0.579,1.909h-1.271l2.159-6.736h1.568
			l2.188,6.736H75.613z M85.354,75.473c-0.488,0.489-1.258,0.719-2.129,0.719c-0.229,0-0.438-0.01-0.6-0.039v2.539h-1.219v-6.646
			h0.001c0.438-0.08,1.049-0.141,1.879-0.141c0.899,0,1.56,0.189,1.987,0.551c0.4,0.329,0.66,0.859,0.66,1.488
			C85.934,74.584,85.734,75.113,85.354,75.473z M94.594,78.691h-4.066v-6.735h3.918v1.01h-2.689v1.738h2.539v0.999h-0.001h-2.539
			v1.979h2.839V78.691z M73.195,60.855c-9.127,0-14.793-6.508-19.791-12.25l2.262-1.97c5.721,6.569,10.325,11.219,17.529,11.219
			c10.584,0,19.195-8.609,19.195-19.193s-8.611-19.196-19.195-19.196c-6.448,0-11.832,3.22-16.943,10.133l-2.412-1.783
			c5.646-7.638,11.979-11.35,19.355-11.35c12.238,0,22.195,9.957,22.195,22.196C95.391,50.898,85.434,60.855,73.195,60.855z"/>
		<path fill="#FFFFFF" d="M83.336,72.846c-0.34,0-0.58,0.03-0.71,0.061v2.277c0.149,0.041,0.351,0.051,0.601,0.051
			c0.92,0,1.479-0.45,1.479-1.239C84.705,73.245,84.186,72.846,83.336,72.846z"/>
		<path fill="#FFFFFF" d="M73.925,72.936h-0.021c-0.1,0.39-0.199,0.858-0.319,1.26l-0.521,1.658h1.73l-0.529-1.658
			C74.135,73.785,74.025,73.325,73.925,72.936z"/>
	</g>
</g>
</svg>
