<?xml version="1.0" encoding="utf-8"?>
<!-- Generator: Adobe Illustrator 16.0.0, SVG Export Plug-In . SVG Version: 6.00 Build 0)  -->
<!DOCTYPE svg PUBLIC "-//W3C//DTD SVG 1.1//EN" "http://www.w3.org/Graphics/SVG/1.1/DTD/svg11.dtd">
<svg version="1.1" xmlns="http://www.w3.org/2000/svg" xmlns:xlink="http://www.w3.org/1999/xlink" x="0px" y="0px" width="100px"
	 height="100px" viewBox="0 0 100 100" enable-background="new 0 0 100 100" xml:space="preserve">
<g id="Calque_1">
</g>
<g id="Calque_2">
	<path fill="#FFFFFF" d="M0,0v100h100V0H0z M27.095,71.32c-12.239,0-22.196-9.957-22.196-22.195
		c0-12.239,9.957-22.196,22.196-22.196c7.378,0,13.709,3.713,19.354,11.351l-2.412,1.783c-5.11-6.914-10.494-10.134-16.942-10.134
		c-10.584,0-19.196,8.611-19.196,19.196c0,10.585,8.611,19.195,19.196,19.195c7.204,0,11.81-4.648,17.529-11.219l2.263,1.971
		C41.888,64.812,36.222,71.32,27.095,71.32z M49.801,53.744c-1.148,0.148-2.269,0.041-3.359-0.355
		c-0.461-0.166-0.9-0.381-1.347-0.668c1.334,0.115,2.515-0.203,3.577-1.008c-1.113-0.096-1.859-0.652-2.271-1.7
		c0.375,0.058,0.719,0.055,1.068-0.038c-1.197-0.36-1.84-1.151-1.926-2.428c0.354,0.175,0.695,0.289,1.076,0.299
		c-1.074-0.897-1.313-1.971-0.729-3.255c1.334,1.566,2.998,2.418,5.031,2.558c-0.016-0.149-0.035-0.286-0.043-0.423
		c-0.062-1.212,0.734-2.271,1.926-2.517c0.822-0.17,1.557,0.04,2.176,0.616c0.082,0.078,0.15,0.091,0.254,0.066
		c0.445-0.108,0.873-0.266,1.271-0.489c0.035-0.019,0.07-0.036,0.129-0.066c-0.195,0.572-0.537,0.992-1.006,1.318
		c0.455-0.04,0.883-0.17,1.301-0.344c0.01,0.009,0.018,0.019,0.025,0.029c-0.197,0.229-0.385,0.467-0.594,0.685
		c-0.164,0.168-0.352,0.313-0.533,0.464c-0.055,0.046-0.08,0.089-0.08,0.165c0.01,2.376-0.896,4.324-2.762,5.802
		C52.057,53.189,50.977,53.596,49.801,53.744z M73.412,72.072c-9.127,0-14.793-6.508-19.791-12.248l2.262-1.971
		c5.721,6.568,10.326,11.219,17.529,11.219c10.584,0,19.195-8.611,19.195-19.195c0-10.584-8.611-19.196-19.195-19.196
		c-6.447,0-11.832,3.22-16.943,10.133l-2.412-1.783c5.646-7.638,11.979-11.35,19.355-11.35c12.238,0,22.195,9.957,22.195,22.196
		C95.607,62.115,85.65,72.072,73.412,72.072z"/>
</g>
</svg>
